<svg width="90" height="90" viewBox="0 0 90 90" fill="none" xmlns="http://www.w3.org/2000/svg">
<rect width="90" height="90" rx="45" fill="#6F3BFF"/>
<g clip-path="url(#clip0_192_346)">
<path d="M56.1555 64.3985C55.585 64.295 55.0075 64.1789 54.4243 64.0488Z" fill="white"/>
<path d="M56.1555 64.3985C55.585 64.295 55.0075 64.1789 54.4243 64.0488" stroke="white" stroke-width="10.12" stroke-miterlimit="22.93"/>
<path fill-rule="evenodd" clip-rule="evenodd" d="M42.8054 26.8003L38.4039 28.5963L36.0894 27.5738L37.2855 24.4573L42.8054 26.8003Z" fill="white"/>
<path fill-rule="evenodd" clip-rule="evenodd" d="M46.8991 32.3507L50.7951 30.4973L53.3595 31.9982L53.4866 36.6087L46.8991 32.3507Z" fill="white"/>
<path fill-rule="evenodd" clip-rule="evenodd" d="M29.0839 26.2588C29.6417 25.1579 30.0159 23.8431 30.5017 22.7562C30.1882 22.752 29.8394 22.6974 29.5019 22.689C25.5297 22.5953 19.0001 22.3268 16.1278 24.7565C3.87353 35.1244 31.0284 58.9264 51.7003 64.4782C51.9375 63.3158 52.2722 62.2695 52.4445 61.1337C37.8249 57.2884 15.5799 39.118 16.7802 30.5783C17.2222 27.4352 20.5802 25.5958 29.0825 26.2588" fill="white"/>
<path fill-rule="evenodd" clip-rule="evenodd" d="M71.3541 54.1467C69.1286 49.3558 65.9485 45.6685 62.0963 42.759V38.2241C70.2554 44.3201 77.22 53.6627 75.5551 60.6301C74.6231 64.5286 69.5578 66.9093 59.2975 66.2155C59.4669 64.8447 59.5742 64.6601 59.7296 63.092C66.1518 63.092 75.4012 63.1507 71.3526 54.1481" fill="white"/>
<path fill-rule="evenodd" clip-rule="evenodd" d="M29.259 34.1314C30.4791 33.5607 31.7797 32.3396 32.9997 31.7675C33.6366 27.1346 37.0496 18.5586 40.6138 15.2966C46.1168 10.2623 49.753 15.5959 53.1124 22.7172C54.4624 22.4766 55.6542 22.1745 56.8418 21.8723C54.9919 18.1795 53.3736 14.9301 50.7217 12.3283C47.094 8.77117 41.9031 9.37126 38.377 12.4081C33.4897 16.617 30.16 27.904 29.259 34.13" fill="white"/>
<path fill-rule="evenodd" clip-rule="evenodd" d="M26.4419 42.8542C25.5523 42.1156 24.6556 41.1686 23.8408 40.3279C30.866 34.3551 46.7339 24.7103 59.707 22.7184C72.2875 20.7867 82.1454 26.5973 70.6649 43.4025C69.716 42.4611 69.0834 41.3826 68.133 40.4426C70.2328 37.8325 73.444 32.4023 71.813 28.813C67.3352 18.9515 38.7371 32.8919 29.2605 40.4021C28.2367 41.2134 27.244 42.2387 26.4405 42.8542" fill="white"/>
<path fill-rule="evenodd" clip-rule="evenodd" d="M32.4998 48.1459L28.8382 45.3749V43.2585L32.4998 40.7393V48.1459Z" fill="white"/>
<path fill-rule="evenodd" clip-rule="evenodd" d="M21.2326 48.5992C20.2837 47.6928 19.4096 46.8857 18.4606 45.9792C13.0635 51.7647 9.35958 63.3649 18.8193 66.0227C21.443 66.7598 27.0321 66.6144 30.1021 66.3178C29.9453 65.2939 29.6855 64.2042 29.4469 63.1621C14.0817 64.7512 14.6945 55.8925 21.2312 48.5992" fill="white"/>
<path fill-rule="evenodd" clip-rule="evenodd" d="M58.6436 27.957C57.5521 28.1248 56.2995 28.7934 55.2009 29.0928C57.1666 45.4322 56.1936 60.3504 51.1044 71.047C41.382 85.7204 34.6872 64.1845 34.2155 58.8523C32.8585 57.9794 31.5029 57.0548 30.1458 56.182C30.8194 62.878 32.795 69.8594 36.4537 75.4812C40.4373 79.9714 44.4816 81.096 48.5781 79.2818C54.5499 76.6352 58.4657 64.5272 59.1421 58.4494C60.1461 48.6075 60.2167 37.7989 58.6436 27.9556" fill="white"/>
<path fill-rule="evenodd" clip-rule="evenodd" d="M36.7503 64.4728L36.4481 61.741L38.6623 60.7478L41.9807 62.5075L36.7503 64.4728Z" fill="white"/>
<path fill-rule="evenodd" clip-rule="evenodd" d="M49.8801 58.7963L46.861 57.0212L53.3779 53.5103L53.1491 56.9569L49.8801 58.7963Z" fill="white"/>
<path fill-rule="evenodd" clip-rule="evenodd" d="M66.0375 48.4132L60.8536 52.2193L61.0725 48.1418L63.514 45.845L66.0375 48.4132Z" fill="white"/>
<path d="M54.4243 44.4377C54.4299 49.9658 49.8773 54.4532 44.2825 54.4392C38.9532 54.4266 34.2678 50.1756 34.2353 44.4503C34.2043 38.9013 38.771 34.4447 44.4265 34.4475C49.9098 34.4503 54.4229 38.96 54.4243 44.4377ZM41.663 35.6896C42.7927 35.8589 43.7854 36.1568 44.6793 36.7234C46.0632 37.6018 46.8102 38.8523 46.7735 40.4861C46.7438 41.7842 46.2439 42.9326 45.3755 43.9132C44.8191 44.5413 44.2288 45.1413 43.6922 45.7834C42.3338 47.4088 42.3112 49.6259 43.6301 51.18C44.4463 52.1409 45.5407 52.5914 46.765 52.7662C47.3044 52.8431 47.8283 52.9257 48.372 52.6585C51.9827 50.882 54.0246 47.1346 53.4725 43.1802C53.0799 40.3784 51.6255 38.2313 49.2418 36.6996C47.7633 35.7498 46.1239 35.2994 44.3658 35.291C43.4776 35.2868 42.5978 35.3861 41.663 35.691V35.6896ZM42.0062 53.2768C41.9172 53.197 41.9031 53.1788 41.8847 53.1691C41.7266 53.0865 41.567 53.004 41.4074 52.9243C39.5872 52.0011 38.1709 50.6904 37.3603 48.7978C36.5879 46.9948 36.5441 45.2197 37.5834 43.4922C38.1243 42.5941 38.8868 41.9143 39.7397 41.3142C40.241 40.9617 40.7324 40.5826 41.1674 40.156C41.5967 39.7322 41.5924 39.3377 41.2803 38.8272C41.1829 38.6677 41.0827 38.5096 40.9541 38.3026C41.5232 38.339 41.968 38.5306 42.3352 38.8719C43.3237 39.7923 43.4296 40.9365 43.03 42.1241C42.8436 42.6795 42.458 43.1746 42.1361 43.681C41.4442 44.7665 40.8963 45.9079 40.8539 47.213C40.8002 48.8831 41.4159 50.3225 42.5258 51.559C43.1655 52.271 43.9506 52.7578 44.9066 52.9439C44.7668 52.8529 44.6172 52.7774 44.4717 52.6963C42.3818 51.5255 41.4837 49.1027 42.3041 46.8605C42.6473 45.9233 43.2954 45.2015 43.9648 44.4923C44.6412 43.7761 45.3162 43.0613 45.7228 42.1451C46.6506 40.0539 45.9304 38.0522 43.8815 37.0213C43.1429 36.6492 42.3465 36.4814 41.5444 36.3163C40.6957 36.1415 39.9417 36.2967 39.254 36.8059C38.8939 37.0731 38.5211 37.3262 38.1921 37.6256C35.7745 39.8245 34.7493 42.5606 35.1956 45.7694C35.5486 48.3124 36.8619 50.3435 38.9546 51.8612C39.8485 52.5088 40.8369 52.9746 42.0048 53.2796L42.0062 53.2768ZM42.0231 39.4594C42.0838 40.1882 41.7195 40.6904 41.1843 41.0946C40.8002 41.3842 40.3907 41.6387 39.9981 41.9171C38.1568 43.2292 37.2544 44.9609 37.606 47.2367C37.7458 48.1474 38.1116 48.9727 38.6524 49.7294C38.3742 48.6579 38.322 47.5822 38.5451 46.5024C38.7668 45.4295 39.1932 44.4559 40.0306 43.6153C40.0306 44.0824 40.0306 44.4713 40.0306 44.8616C40.0306 45.263 40.0222 45.6645 40.0335 46.0645C40.0447 46.4394 40.0772 46.8129 40.0998 47.1878C40.1718 46.8409 40.2043 46.4982 40.2693 46.1625C40.5065 44.9413 41.1363 43.9104 41.8805 42.9354C42.2166 42.4962 42.4891 42.0234 42.5597 41.4667C42.6543 40.7323 42.5753 40.0357 42.0231 39.4594ZM42.5865 52.6207C40.4458 50.8233 39.3571 48.5768 39.333 45.8323C38.5225 48.3852 39.2342 51.4821 42.5865 52.6207Z" fill="white"/>
</g>
<defs>
<clipPath id="clip0_192_346">
<rect width="62.8022" height="70.2198" fill="white" transform="translate(13 9.89014)"/>
</clipPath>
</defs>
</svg>
